# xmcd
#
# Track frame offsets: 
#        150
#        13375
#        32650
#        47372
#        66807
#
# Disc length: 1156 seconds
#
# Revision: 0
# Processed by: cddbd v1.5.2PL0 Copyright (c) Steve Scherf et al.
# Submitted via: ExactAudioCopy v1.3
#
DISCID=39048205
DTITLE=John Verity Band - Back Door Santa Got The Blues For Christmas
DYEAR=2015
DGENRE=Blues Rock
TTITLE0=Trim Your Tree
TTITLE1=Santa Claus Got the Blues
TTITLE2=Santa Claus Wants Some Lovin
TTITLE3=Please Come Home for Christmas
TTITLE4=Back Door Santa
EXTD=
EXTT0=
EXTT1=
EXTT2=
EXTT3=
EXTT4=
PLAYORDER=
